<svg width="128" height="128" viewBox="0 0 128 128" fill="none" xmlns="http://www.w3.org/2000/svg">
<g clip-path="url(#clip0_391_78)">
<rect width="128" height="128" rx="24" fill="#000C1A"/>
<path fill-rule="evenodd" clip-rule="evenodd" d="M17.0182 42.6838C17.0053 42.4198 16.9925 41.4386 17.0054 41.2938L17.0312 41.0792C18.1145 30.4702 38.5162 22 63.4833 22C89.1339 22 109.974 30.9455 109.974 41.9632C109.974 52.981 89.1339 61.9273 63.4833 61.9273C49.6714 61.9273 37.2653 59.3364 28.7409 55.2278V62.9562C28.7409 63.0005 28.7409 63.0448 28.7409 63.0891C28.7409 69.5706 44.3195 74.8324 63.5091 74.8324C82.5697 74.8324 98.0581 69.6404 98.2644 63.2185C98.2644 63.2185 98.2644 63.1998 98.2644 63.1708C98.2644 63.1129 98.2902 63.0584 98.3289 63.0175C98.3676 62.9766 98.4321 62.9545 98.4837 62.9545C99.9797 62.9545 108.672 62.9545 109.858 62.9545C109.897 62.9545 109.936 62.9681 109.961 62.9937C109.987 63.0192 110 63.0533 110 63.0891C110 63.1334 110 84.9031 110 84.9031C110 84.9473 110 84.9916 110 85.0376C110 96.0554 89.1597 105 63.5091 105C37.8456 105 17.0182 96.0554 17.0182 85.0376C17.0182 84.9627 17.0827 84.9031 17.1472 84.9031C18.3594 84.9031 27.3868 84.9031 28.612 84.9031C28.6764 84.9031 28.7409 84.9627 28.7409 85.0376C28.7409 91.5174 44.3195 96.7793 63.5091 96.7793C82.6987 96.7793 98.2774 91.5174 98.2774 85.0376C98.2774 84.9933 98.2773 84.9508 98.2644 84.9082V84.9031V76.3382C89.7529 80.4571 77.3339 83.0531 63.5091 83.0531C37.8456 83.0531 17.0182 74.1068 17.0182 63.0891C17.0182 63.0448 17.0182 63.0005 17.0182 62.9562V42.6838ZM28.7409 44.2152C30.6109 50.1056 44.5517 53.5482 60.9815 51.9742C78.2624 50.3185 91.7905 43.7348 91.1715 37.2839C90.5525 30.8331 76.0184 26.9397 58.7375 28.5965C43.0815 30.0972 30.5077 35.6418 28.7409 41.4692C28.7409 41.4692 28.5345 42.4334 28.5345 42.9478C28.5474 43.6667 28.6506 43.8966 28.7409 44.2152Z" fill="#ADC2D8"/>
</g>
<defs>
<clipPath id="clip0_391_78">
<rect width="128" height="128" fill="white"/>
</clipPath>
</defs>
</svg>
